<svg xmlns="http://www.w3.org/2000/svg" viewBox="0 0 499.96 500.03"><defs><style>.cls-1{isolation:isolate;}.cls-2,.cls-25{fill:#96fffa;}.cls-2{opacity:0.58;}.cls-3{fill:#fcddfc;}.cls-4,.cls-6{fill:#ccc2fe;}.cls-5{fill:#eef4f2;}.cls-6{stroke:#ccc2fe;stroke-linecap:round;stroke-linejoin:round;}.cls-24,.cls-6{stroke-width:2px;}.cls-7{fill:#8b77e8;}.cls-8{fill:#b3a4f5;}.cls-9{fill:#745cd4;}.cls-10{fill:#eae9c5;}.cls-11{fill:#d3d1a5;}.cls-12{fill:#4a3e93;}.cls-13{fill:#ffd359;}.cls-14,.cls-15{fill:#ff75fe;}.cls-15{mix-blend-mode:multiply;opacity:0.56;}.cls-16{font-size:30.04px;}.cls-16,.cls-19,.cls-20,.cls-21,.cls-22,.cls-23{fill:#fff;font-family:BungeeLayers-Regular, BungeeLayers Regular;}.cls-17{font-size:21.2px;}.cls-18{fill:#70e5ff;}.cls-19{font-size:16.8px;}.cls-20{font-size:17.94px;}.cls-21{font-size:19.84px;}.cls-22{font-size:18.21px;}.cls-23{font-size:25.73px;}.cls-24{fill:none;stroke:#96fffa;stroke-miterlimit:10;}</style></defs><g class="cls-1"><g id="OBJECTS"><rect class="cls-2" x="63.28" y="222.48" width="55.14" height="55.14" rx="9.95"/><rect class="cls-3" x="99.11" y="152.81" width="51.42" height="52.9" rx="9.41"/><rect class="cls-3" x="76.72" y="88.59" width="25.71" height="26.45" rx="4.71"/><rect class="cls-3" x="239.72" y="225.02" width="25.71" height="26.45" rx="4.71"/><rect class="cls-3" x="263.16" y="101.82" width="25.71" height="26.45" rx="4.71"/><rect class="cls-3" x="409.17" y="98.54" width="25.71" height="26.45" rx="4.71"/><rect class="cls-3" x="46.21" y="60.64" width="16.59" height="17.07" rx="3.04"/><rect class="cls-3" x="194.66" y="69.17" width="16.59" height="17.07" rx="3.04"/><rect class="cls-3" x="75.42" y="317.13" width="16.59" height="17.07" rx="3.04"/><rect class="cls-3" x="408.71" y="392.24" width="16.59" height="17.07" rx="3.04"/><rect class="cls-3" x="273.95" y="351.61" width="16.59" height="17.07" rx="3.04"/><rect class="cls-3" x="408.72" y="149.75" width="13.55" height="13.94" rx="2.48"/><rect class="cls-2" x="347.02" y="90.76" width="13.55" height="13.94" rx="2.48"/><rect class="cls-2" x="92.33" y="66.93" width="13.55" height="13.94" rx="2.48"/><rect class="cls-2" x="39.43" y="101.82" width="13.55" height="13.94" rx="2.48"/><rect class="cls-2" x="211.79" y="192.24" width="13.55" height="13.94" rx="2.48"/><rect class="cls-2" x="425.22" y="157.97" width="13.55" height="13.94" rx="2.48"/><rect class="cls-3" x="360.61" y="106.51" width="16.59" height="17.07" rx="3.04"/><rect class="cls-3" x="194.19" y="121.81" width="16.59" height="17.07" rx="3.04"/><rect class="cls-3" x="221.36" y="166.43" width="16.59" height="17.07" rx="3.04"/><rect class="cls-3" x="437.28" y="183.5" width="16.59" height="17.07" rx="3.04"/><circle class="cls-2" cx="355.71" cy="289.33" r="89.86"/><path class="cls-4" d="M122.7,325.6c-10.59-11-31.3-28.69-21.65-46,11.84-21.25,52.45-14.86,71.2-9.46,17,4.91,33.48,14.95,29.68,35.23-1.59,8.49-8.61,14.23-10.84,22.18-3.8-1.37-9.15-.3-13.33-.52,1.46-5.6.48-11.88-3.9-15.92-6.56-6.05-24.77-14.61-34-11.44-12.55,4.31,3.67,24.44,7.77,29.85-5.49-1-10.8.38-16.45.08"/><path class="cls-4" d="M108.7,334.23H214.29a4.3,4.3,0,0,0,4.28-4.28h0a4.3,4.3,0,0,0-4.28-4.29H108.7a4.29,4.29,0,0,0-4.28,4.29h0A4.29,4.29,0,0,0,108.7,334.23Z"/><path class="cls-4" d="M198.22,425h0a1.34,1.34,0,0,0,1.33-1.33V331.28a1.34,1.34,0,0,0-1.33-1.33h0a1.34,1.34,0,0,0-1.34,1.33v92.36A1.34,1.34,0,0,0,198.22,425Z"/><path class="cls-4" d="M141.61,425h0a1.34,1.34,0,0,0,1.33-1.33V331.28a1.34,1.34,0,0,0-1.33-1.33h0a1.34,1.34,0,0,0-1.33,1.33v92.36A1.34,1.34,0,0,0,141.61,425Z"/><path class="cls-4" d="M167.21,427.33h0a1.34,1.34,0,0,0,1.34-1.33V333.64a1.34,1.34,0,0,0-1.34-1.33h0a1.34,1.34,0,0,0-1.33,1.33V426A1.34,1.34,0,0,0,167.21,427.33Z"/><path class="cls-4" d="M114.74,425h0a1.34,1.34,0,0,0,1.33-1.33V331.28a1.34,1.34,0,0,0-1.33-1.33h0a1.34,1.34,0,0,0-1.33,1.33v92.36A1.34,1.34,0,0,0,114.74,425Z"/><polygon class="cls-5" points="321.14 298.18 322.23 300.17 324.21 301.25 322.23 302.33 321.14 304.32 320.06 302.33 318.08 301.25 320.06 300.17 321.14 298.18"/><polygon class="cls-6" points="236.92 317.3 227.91 427.33 243.91 321.83 353.9 321.83 376.4 427.33 360.9 323.33 367.9 322.83 395.9 427.33 369.1 317.3 236.92 317.3"/><polygon class="cls-6" points="247.16 323.33 263.15 427.33 253.16 323.33 247.16 323.33"/><path class="cls-7" d="M369.1,317.3h-138c-1.75,0-3.18-.87-3.18-1.94h0c0-1.07,1.43-1.94,3.18-1.94h138c1.75,0,3.18.87,3.18,1.94h0C372.28,316.43,370.85,317.3,369.1,317.3Z"/><path class="cls-8" d="M302.57,314.43h-27.8a3,3,0,0,1-3-3h0a3,3,0,0,1,3-3h27.8a3,3,0,0,1,3,3h0A3,3,0,0,1,302.57,314.43Z"/><rect class="cls-4" x="298.29" y="263.66" width="66.96" height="50.35" rx="2.76"/><path class="cls-5" d="M343.09,289.47a6.69,6.69,0,1,1-6.69-6.69A6.68,6.68,0,0,1,343.09,289.47Z"/><rect class="cls-9" x="168.32" y="269.65" width="31.52" height="60" rx="12"/><path class="cls-10" d="M153.43,245.65c-1.35-1.89-2.73-3.77-4.08-5.71-4.64-6.68-11.81-16.06-10.12-24.75a12.17,12.17,0,0,1,2.12-.9c.24-.09.5-.17.77-.25h0c1.17-.37,2.58-.75,4.06-1.1a42.05,42.05,0,0,1,8.39-1.3,15.24,15.24,0,0,0,3.1-.83,62.56,62.56,0,0,0,6-2.28,28.3,28.3,0,0,0,7-5.15c4.77-4.79,6.72-10.22,6.76-12.74a44.77,44.77,0,0,1,.66-6l14.45.25c0,1.41-.08,2.7-.08,3.67,0,5.74,3.13,10.79,7.23,14.86a47.93,47.93,0,0,0,15.42,9.94c1.14.09,2.62.22,4.23.4s3.47.42,5.19.71c.7.11,1.38.22,2,.36l.95.19h0l.46.11c.26.05.53.12.77.18l.09,0,.8.23a2.59,2.59,0,0,1,.37.11c.25.07.47.16.69.23A10.18,10.18,0,0,1,235.3,219a.23.23,0,0,1,0,.07,7.7,7.7,0,0,1,1.42,3.19c.65,3.28.18,7.17.45,11,.16,2.36-10.67,7.5-15.66,10.22a19.58,19.58,0,0,0-2.13,1.28c-1.93,1.45-3.82,3-5.62,4.66-.43.38-.86.79-1.28,1.19-4.81,4.68-8.81,10.1-10.75,16.45-.1.34-.22.73-.31,1.15,0,.14-.07.28-.11.42l-.09.44c-.07.3-.14.61-.2.94-.47,2.41-.87,5.4-1.2,8.53-.06.58-.12,1.19-.18,1.78l-30.62-.54c0-.57,0-1.14,0-1.7,0-1.37-.1-2.71-.19-4,0-.81-.11-1.59-.2-2.35,0-.28-.05-.56-.09-.83-.05-.45-.11-.88-.17-1.31,0-.28-.09-.56-.13-.83s-.1-.54-.16-.8-.1-.52-.16-.78l-.18-.73a36.94,36.94,0,0,0-7.63-14A63,63,0,0,0,153.43,245.65Z"/><path class="cls-10" d="M136.16,216.87a7.12,7.12,0,0,1,5.6-3.84c4.38-.75,8.86-1.18,13.17-2.11.74-.16,1.47-.33,2.19-.53,1-.26,2-.56,2.95-.9A31.76,31.76,0,0,0,174,199.6a1.47,1.47,0,0,0,.1-.13l23.78.43a1.13,1.13,0,0,0,.1.13,31,31,0,0,0,3.13,3.37c.6.54,1.2,1.07,1.81,1.57,1.22,1,2.48,1.94,3.74,2.79l.29.19,1.53,1,.42.25c.51.31,1,.61,1.52.88l.28.16c.58.33,1.17.64,1.74.92l.28.14h0c.46.22.91.45,1.35.64l.08,0,.41.19,1.1.48.44.19,1.13.44a1.78,1.78,0,0,0,.52.11c1.17.08,2.63.21,4.22.38,1.76.18,3.68.42,5.5.71.75.11,1.46.24,2.16.36l1,.2c.17,0,.32.06.48.11s.57.12.83.18l.09,0,.84.23a3,3,0,0,1,.4.11l.72.24a10.93,10.93,0,0,1,4.87,3.11l0,.06c.16.2.3.41.44.62a2.53,2.53,0,0,1,.13.22c.1.16.18.32.27.48l.12.24c.08.19.15.37.23.55a9.19,9.19,0,0,1,.32,1.09c.69,3.28.2,7.17.48,11a.75.75,0,0,1,0,.29.19.19,0,0,1,0,.08,1.11,1.11,0,0,1-.13.27l0,.06a3.75,3.75,0,0,1-.27.36l0,0c-2,2.37-9.82,6-14.68,8.41l-.38.2-.29.14c-.26.13-.5.25-.73.38a18.72,18.72,0,0,0-2.26,1.27c-2.05,1.45-4.05,3-6,4.65-.46.39-.92.79-1.36,1.19-5.1,4.67-9.33,10.09-11.39,16.43-.11.35-.23.74-.33,1.15,0,.15-.08.29-.11.43s-.08.29-.1.44-.15.61-.21.93c-.5,2.42-.93,5.41-1.27,8.53-.05.6-.12,1.2-.19,1.79-.19,2-.36,3.93-.51,5.8-.25,3.22-.43,6.14-.54,8.25a7.77,7.77,0,0,1,0,.84v.59c-.12,6.66-6.05,12-13.17,11.88l-7.35-.13c-6.12-.11-11.06-4.88-11-10.6,0,0,0-1.19,0-1.19,0-1.1,0-2.33,0-3.68,0-1.81,0-3.81,0-5.87s0-4.3,0-6.47c0-.57,0-1.14,0-1.7-.05-1.36-.11-2.71-.2-4-.06-.81-.13-1.6-.22-2.36,0-.28,0-.56-.09-.83-.06-.44-.12-.88-.19-1.31,0-.27-.09-.56-.15-.83s-.1-.53-.16-.8-.11-.52-.17-.77-.12-.5-.19-.74c-1.95-6.57-6.68-11.53-11.77-16.21a80.12,80.12,0,0,1-12.84-15C139.8,230.85,133.74,221.94,136.16,216.87Z"/><path class="cls-9" d="M167.21,268.83c0,.32.1.64.13,1,.07.58.13,1.17.19,1.77,0,.37.07.74.1,1.12q.13,1.54.21,3.18c.1,1.73.16,3.55.22,5.4,0,.75,0,1.53,0,2.3,0,2.92,0,5.88,0,8.72s0,5.49,0,7.94c0,1.82,0,3.48,0,5,0,0,0,1.61,0,1.61C168,314.52,173,321,179.2,321.11l7.48.17c7.23.17,13.26-7,13.38-16l0-.8c0-.38,0-.76,0-1.13.11-2.85.29-6.8.55-11.15.14-2.52.32-5.18.52-7.83.06-.8.13-1.61.18-2.41.35-4.22.79-8.26,1.3-11.52.06-.44.13-.86.2-1.26l.06-.31Z"/><path class="cls-8" d="M170.6,203.58a21.11,21.11,0,0,0,29.24,0c-4.13-4.11-7.27-9.2-7.28-15,0-1,.06-2.27.07-3.7l-14.56-.25a45.38,45.38,0,0,0-.66,6.07C177.37,193.26,175.41,198.75,170.6,203.58Z"/><path class="cls-10" d="M215.74,234.5l18.51,41.55a13.11,13.11,0,0,0,17.19,6.6,12.92,12.92,0,0,0,6.65-17l-18.5-41.55a13,13,0,0,0-9.23-7.4l-.08,0a13.07,13.07,0,0,0-6.64.34h0a12.86,12.86,0,0,0-8.11,7.62,12.19,12.19,0,0,0-.62,2.14A12.73,12.73,0,0,0,215.74,234.5Z"/><path class="cls-10" d="M240.39,261.48A13.91,13.91,0,0,1,258.88,268a13.7,13.7,0,0,1-6.54,18.33,14,14,0,0,1-6,1.33v.05L203,293.93l-3.27-6.81,38-23.92A13.64,13.64,0,0,1,240.39,261.48Z"/><path class="cls-10" d="M211.51,281.48c2,2,2.77,4.75,2.07,8.14a22.11,22.11,0,0,1-.81,2.89l-9.8,1.42-3.27-6.81L210,280.64Q210.76,281,211.51,281.48Z"/><polygon class="cls-4" points="201.49 287.44 202.95 293.31 186.04 299.5 175.19 297.75 174.38 293.47 185.35 292.35 193.53 288.22 188.57 287.45 181.62 289.16 180.61 287.02 190.75 284.02 201.49 287.44"/><path class="cls-10" d="M137.59,215.91,97.54,238a12.9,12.9,0,0,0-5.06,17.57,13.13,13.13,0,0,0,17.73,5l40.05-22.07a12.92,12.92,0,0,0,6.58-9.79.22.22,0,0,0,0-.08,12.73,12.73,0,0,0-.95-6.52h0c-.18-.4-.37-.79-.58-1.17a13,13,0,0,0-7.82-6.14,13.68,13.68,0,0,0-2.21-.42A13,13,0,0,0,137.59,215.91Z"/><path class="cls-10" d="M112.74,242.71a13.69,13.69,0,0,1-4.82,18.85,13.94,13.94,0,0,1-19-4.78A13.66,13.66,0,0,1,87,250.94h0L76.72,208.74l6.54-3.85,27.5,35.28A13.5,13.5,0,0,1,112.74,242.71Z"/><path class="cls-10" d="M90,216c-1.82,2.17-4.51,3.18-8,2.79a23,23,0,0,1-3-.54l-2.32-9.54,6.54-3.85,7.45,9.55C90.49,215,90.25,215.51,90,216Z"/><polygon class="cls-4" points="83.1 206.69 77.35 208.66 69.58 192.54 70.34 181.67 74.56 180.47 76.7 191.2 81.59 198.9 81.92 193.93 79.56 187.23 81.62 186.03 85.55 195.77 83.1 206.69"/><path class="cls-11" d="M157.24,210.41l53.38,1v-.1l-.27-.14c-.54-.3-1.11-.62-1.67-1l-.27-.16-1.46-.91c-.13-.09-.26-.18-.4-.26l-1.47-1-.27-.2a43.52,43.52,0,0,1-3.59-2.88c-.59-.52-1.17-1.07-1.74-1.63a32,32,0,0,1-3-3.49l-23-.4a30.87,30.87,0,0,1-13.37,10.25C159.14,209.83,158.2,210.14,157.24,210.41Z"/><path class="cls-11" d="M155.33,210.94c.71-.15,1.4-.33,2.1-.52.95-.26,1.89-.56,2.82-.91a31.3,31.3,0,0,0,7-3.8l35.65.63c.63.49,1.26,1,1.9,1.41l.27.19,1.47,1,.4.25c.49.31,1,.61,1.45.89l.26.15q.85.5,1.68.93l.26.14h0c.44.22.87.45,1.29.64l.08,0c-.59-.07-1.18-.11-1.78-.15-14.35-.7-26.64,9.58-28.33,23.29l-.4,0a26.94,26.94,0,0,0-25.68-23.75c-.2,0-.4,0-.6,0C155.25,211.19,155.28,211.06,155.33,210.94Z"/><path class="cls-12" d="M184,255.17h0c.88,0,1.62-1.42,1.65-3.2l.8-44.59c0-1.77-.66-3.24-1.53-3.25h0c-.88,0-1.63,1.42-1.66,3.19l-.8,44.6C182.46,253.69,183.15,255.15,184,255.17Z"/><path class="cls-12" d="M185,207h.32a3.31,3.31,0,0,0,3.36-3.24h0a3.31,3.31,0,0,0-3.24-3.36h-.32a3.31,3.31,0,0,0-3.36,3.24h0A3.3,3.3,0,0,0,185,207Z"/><path class="cls-8" d="M194.55,186.41l.58,0a2.21,2.21,0,0,0,2.37-2l.17-4a2.21,2.21,0,0,0-2.21-2.18l-.58,0a2.23,2.23,0,0,0-2.38,2l-.16,4A2.2,2.2,0,0,0,194.55,186.41Z"/><path class="cls-8" d="M175.09,185.43l.59,0a2.21,2.21,0,0,0,2.37-2l.17-4.05a2.2,2.2,0,0,0-2.21-2.18l-.58,0a2.22,2.22,0,0,0-2.38,2l-.16,4.05A2.19,2.19,0,0,0,175.09,185.43Z"/><path class="cls-4" d="M183.73,195.41h0c4.94.18,9.13-3.37,9.31-7.89l.68-16.89c.19-4.52-3.71-8.36-8.65-8.54h0c-4.94-.18-9.13,3.37-9.31,7.89l-.68,16.89C174.9,191.39,178.79,195.23,183.73,195.41Z"/><path class="cls-10" d="M171.74,199.47c0,4.45,2.91,8.05,6.48,8.05s6.45-3.6,6.47-8.05Z"/><path class="cls-10" d="M184.69,199.47c0,4.45,2.91,8.05,6.48,8.05s6.46-3.6,6.48-8.05Z"/><circle class="cls-12" cx="185.83" cy="187.88" r="2.43"/><path class="cls-9" d="M190,425.93h.3a4.69,4.69,0,0,0,4.71-4.62l.4-76.93a4.67,4.67,0,0,0-4.66-4.67h-.3a4.69,4.69,0,0,0-4.71,4.62l-.4,76.93A4.69,4.69,0,0,0,190,425.93Z"/><path class="cls-9" d="M213.73,422.3H214a4.67,4.67,0,0,0,4.71-4.62l.41-76.92a4.67,4.67,0,0,0-4.66-4.67h-.3a4.7,4.7,0,0,0-4.71,4.63l-.4,76.92A4.67,4.67,0,0,0,213.73,422.3Z"/><rect class="cls-9" x="179.77" y="317.72" width="7.94" height="31.51" rx="3.4" transform="translate(-157.32 164.24) rotate(-34.75)"/><rect class="cls-9" x="200.82" y="313.51" width="7.94" height="35.68" rx="3.64" transform="translate(-178.2 260.31) rotate(-47.77)"/><path class="cls-12" d="M197.61,431H187.42a3.69,3.69,0,0,1-3.68-3.68h0a3.7,3.7,0,0,1,3.68-3.68h10.19a3.69,3.69,0,0,1,3.68,3.68h0A3.68,3.68,0,0,1,197.61,431Z"/><path class="cls-12" d="M221.61,426H211.42a3.69,3.69,0,0,1-3.68-3.68h0a3.7,3.7,0,0,1,3.68-3.68h10.19a3.69,3.69,0,0,1,3.68,3.68h0A3.68,3.68,0,0,1,221.61,426Z"/><circle class="cls-13" cx="395.91" cy="204.13" r="18.8"/><rect class="cls-10" x="169.82" y="198.83" width="30.24" height="2.51" rx="1.25"/><path class="cls-12" d="M193.41,179.17a10.48,10.48,0,0,1-4.73-10.69,16,16,0,0,1-5,.69c-4.17.2-8.45.28-12-2.28-4.12-3-12.32-11.39-6.33-16.26,3.46-2.81,7-2.09,10.21.81,2.85,2.56,3.45,6.49,7.17,8.36,3,1.5,5.3.67,8.39,1.19,4.91.82,4.49,7,3.92,10.69C194.68,174,194.55,177.11,193.41,179.17Z"/><rect class="cls-14" x="52.24" y="132.33" width="66.5" height="66.5" rx="12"/><path class="cls-15" d="M109.65,132.71c-11.18,20.92-20.59,43.2-40,58a80.46,80.46,0,0,1-10.63,6.88,11.87,11.87,0,0,0,5.18,1.19h42.5a12,12,0,0,0,12-12v-42.5A12,12,0,0,0,109.65,132.71Z"/><text class="cls-16" transform="translate(65.57 178.16)">J<tspan class="cls-17" x="11.11" y="0">S</tspan></text><rect class="cls-18" x="122.95" y="70.16" width="55.14" height="55.14" rx="9.95"/><path class="cls-15" d="M170.55,70.47c-9.26,17.35-17.07,35.82-33.13,48.14a67.35,67.35,0,0,1-8.81,5.7,9.8,9.8,0,0,0,4.29,1h35.24a10,10,0,0,0,10-10V80.11A10,10,0,0,0,170.55,70.47Z"/><text class="cls-19" transform="translate(126.68 103.37)">HTML</text><rect class="cls-18" x="369.44" y="174.97" width="49.66" height="49.66" rx="8.96"/><path class="cls-15" d="M412.31,175.25c-8.34,15.62-15.37,32.26-29.84,43.35a59.29,59.29,0,0,1-7.94,5.14,9,9,0,0,0,3.87.89h31.74a9,9,0,0,0,9-9V183.93A9,9,0,0,0,412.31,175.25Z"/><text class="cls-20" transform="translate(378.3 204.8)">&lt;/&gt;</text><rect class="cls-13" x="206.74" y="107.3" width="45.84" height="45.84" rx="8.27"/><path class="cls-15" d="M246.31,107.56c-7.7,14.42-14.19,29.77-27.54,40a55,55,0,0,1-7.33,4.74,8.08,8.08,0,0,0,3.57.83H244.3a8.31,8.31,0,0,0,8.28-8.27v-29.3A8.29,8.29,0,0,0,246.31,107.56Z"/><text class="cls-21" transform="translate(210.48 137.23)">CSS</text><path class="cls-4" d="M300.54,205.71H242.79a5.59,5.59,0,0,1-5.57-5.57h0a5.58,5.58,0,0,1,5.57-5.57h57.75a5.58,5.58,0,0,1,5.57,5.57h0A5.59,5.59,0,0,1,300.54,205.71Z"/><path class="cls-4" d="M450.89,294.4H393.15a5.58,5.58,0,0,1-5.57-5.57h0a5.58,5.58,0,0,1,5.57-5.57h57.74a5.58,5.58,0,0,1,5.57,5.57h0A5.58,5.58,0,0,1,450.89,294.4Z"/><path class="cls-4" d="M305.86,186.43H258.62a6.06,6.06,0,0,1-6-6.05h0a6.06,6.06,0,0,1,6-6h47.24a6.07,6.07,0,0,1,6.05,6h0A6.07,6.07,0,0,1,305.86,186.43Z"/><path class="cls-4" d="M456.5,274.28H409.27a6.06,6.06,0,0,1-6-6h0a6.06,6.06,0,0,1,6-6.05H456.5a6.06,6.06,0,0,1,6.05,6.05h0A6.06,6.06,0,0,1,456.5,274.28Z"/><path class="cls-7" d="M393,250.06H374.81a5.92,5.92,0,0,1-5.9-5.91h0a5.92,5.92,0,0,1,5.9-5.91H393a5.93,5.93,0,0,1,5.91,5.91h0A5.93,5.93,0,0,1,393,250.06Z"/><path class="cls-7" d="M431.64,250.06H413.45a5.93,5.93,0,0,1-5.9-5.91h0a5.93,5.93,0,0,1,5.9-5.91h18.19a5.93,5.93,0,0,1,5.91,5.91h0A5.93,5.93,0,0,1,431.64,250.06Z"/><path class="cls-4" d="M454.66,224H436.48a5.93,5.93,0,0,1-5.91-5.91h0a5.93,5.93,0,0,1,5.91-5.91h18.18a5.93,5.93,0,0,1,5.91,5.91h0A5.93,5.93,0,0,1,454.66,224Z"/><path class="cls-4" d="M352.19,161.47H334a5.93,5.93,0,0,1-5.91-5.9h0a5.93,5.93,0,0,1,5.91-5.91h18.19a5.93,5.93,0,0,1,5.9,5.91h0A5.92,5.92,0,0,1,352.19,161.47Z"/><rect class="cls-4" x="288.61" y="149.47" width="30" height="11.81" rx="5.91"/><path class="cls-4" d="M426.09,360.15H407.91a5.93,5.93,0,0,1-5.91-5.91h0a5.93,5.93,0,0,1,5.91-5.91h18.18a5.93,5.93,0,0,1,5.91,5.91h0A5.93,5.93,0,0,1,426.09,360.15Z"/><rect class="cls-7" x="326.74" y="174.57" width="30" height="11.81" rx="5.91"/><path class="cls-7" d="M369.67,142.52H351.48a5.92,5.92,0,0,1-5.9-5.9h0a5.93,5.93,0,0,1,5.9-5.91h18.19a5.93,5.93,0,0,1,5.91,5.91h0A5.92,5.92,0,0,1,369.67,142.52Z"/><rect class="cls-7" x="422.55" y="303.38" width="30" height="11.81" rx="5.91"/><rect class="cls-3" x="306.96" y="349.92" width="41.82" height="43.03" rx="7.65"/><path class="cls-14" d="M286.89,66.67h29.73A8.39,8.39,0,0,1,325,75.06v29.73a8.4,8.4,0,0,1-8.4,8.4H286.89a8.39,8.39,0,0,1-8.39-8.39V75.06A8.39,8.39,0,0,1,286.89,66.67Z"/><path class="cls-15" d="M318.66,66.93c-7.82,14.63-14.4,30.22-28,40.61a55.92,55.92,0,0,1-7.43,4.81,8.3,8.3,0,0,0,3.62.84h29.73a8.42,8.42,0,0,0,8.4-8.4V75.06A8.42,8.42,0,0,0,318.66,66.93Z"/><text class="cls-22" transform="translate(282.24 101.54)">PHP</text><rect class="cls-13" x="288.99" y="200.01" width="45.84" height="45.84" rx="8.27"/><path class="cls-15" d="M328.56,200.26c-7.71,14.42-14.19,29.78-27.55,40a55.28,55.28,0,0,1-7.32,4.74,8.21,8.21,0,0,0,3.57.82h29.29a8.29,8.29,0,0,0,8.27-8.27V208.28A8.31,8.31,0,0,0,328.56,200.26Z"/><text class="cls-23" transform="translate(298.6 232.45)">{</text><text class="cls-23" transform="matrix(-1, 0, 0, 1, 325.21, 232.45)">{</text><path class="cls-7" d="M412.35,428H206.4a.75.75,0,0,0-.75.75h0a.76.76,0,0,0,.75.75h206a.76.76,0,0,0,.76-.75h0A.75.75,0,0,0,412.35,428Z"/><rect class="cls-4" x="302.38" y="434.08" width="63.2" height="1.5" rx="0.41"/><rect class="cls-4" x="370.4" y="434.08" width="63.2" height="1.5" rx="0.41"/><rect class="cls-4" x="232.57" y="434.08" width="63.2" height="1.5" rx="0.41"/><rect class="cls-4" x="275.57" y="438.33" width="136.34" height="1.5" rx="0.61"/><rect class="cls-4" x="237.94" y="444.65" width="136.34" height="1.5" rx="0.61"/><polyline class="cls-24" points="122.95 407.33 99.11 407.33 99.11 339.71"/><circle class="cls-25" cx="98.56" cy="338.71" r="2.62"/><circle class="cls-25" cx="122.95" cy="407.33" r="2.62"/><polyline class="cls-24" points="464.74 409.64 440.9 409.64 440.9 342.02"/><circle class="cls-25" cx="440.35" cy="341.02" r="2.62"/><circle class="cls-25" cx="464.74" cy="409.64" r="2.62"/><circle class="cls-25" cx="65.57" cy="291.76" r="2.62"/><circle class="cls-25" cx="40.32" cy="338.14" r="2.62"/><polyline class="cls-24" points="65.57 293.08 65.57 338.71 41.41 338.71"/><circle class="cls-25" cx="60.56" cy="177.38" r="2.62"/><circle class="cls-25" cx="35.31" cy="223.76" r="2.62"/><polyline class="cls-24" points="60.56 178.7 60.56 224.33 36.4 224.33"/><circle class="cls-25" cx="289.04" cy="76.69" r="2.62"/><circle class="cls-25" cx="242.66" cy="51.44" r="2.62"/><polyline class="cls-24" points="287.72 76.69 242.09 76.69 242.09 52.52"/><circle class="cls-25" cx="422.53" cy="59.46" r="2.62"/><circle class="cls-25" cx="397.28" cy="105.84" r="2.63"/><polyline class="cls-24" points="422.53 60.78 422.53 106.41 398.36 106.41"/></g></g></svg>