<svg id="Objects" xmlns="http://www.w3.org/2000/svg" viewBox="0 0 500 500"><defs><style>.cls-1,.cls-12,.cls-15,.cls-16{fill:none;}.cls-1{stroke:#0148a2;stroke-linecap:round;stroke-width:2.5px;}.cls-1,.cls-15,.cls-16{stroke-linejoin:round;}.cls-2{fill:#0148a2;}.cls-3{fill:#a9ccff;}.cls-4{fill:#75a1f9;}.cls-5{fill:#29354a;}.cls-6{fill:#fc2863;}.cls-7{fill:#fbd131;}.cls-8{fill:#fff;}.cls-9{fill:#d7eff5;}.cls-10{fill:#6981f7;}.cls-11{font-size:24.14px;fill:#92a9fc;font-family:RobotoCondensed-Regular, RobotoCondensed Regular;}.cls-12{stroke:#fff;stroke-miterlimit:10;stroke-width:2.6px;}.cls-13{fill:#ebedef;}.cls-14{fill:#083273;}.cls-15,.cls-16{stroke:#fbd131;}.cls-15{stroke-width:3px;}.cls-16{stroke-width:2.71px;}</style></defs><polygon class="cls-1" points="412.76 201.68 389.29 215.23 365.82 201.68 365.82 174.58 389.29 161.03 412.76 174.58 412.76 201.68"/><line class="cls-1" x1="412.76" y1="174.58" x2="436.22" y2="161.03"/><line class="cls-1" x1="436.22" y1="215.23" x2="412.76" y2="201.68"/><line class="cls-1" x1="366.9" y1="201.68" x2="343.43" y2="215.23"/><line class="cls-1" x1="389.29" y1="135.73" x2="389.29" y2="159.27"/><path class="cls-2" d="M393.42,161a4.13,4.13,0,1,1-4.13-4.13A4.13,4.13,0,0,1,393.42,161Z"/><path class="cls-2" d="M393.42,215.23a4.13,4.13,0,1,1-4.13-4.13A4.13,4.13,0,0,1,393.42,215.23Z"/><path class="cls-2" d="M416.89,174.86a4.13,4.13,0,1,1-4.13-4.13A4.13,4.13,0,0,1,416.89,174.86Z"/><path class="cls-2" d="M440.35,161a4.13,4.13,0,1,1-4.13-4.13A4.13,4.13,0,0,1,440.35,161Z"/><path class="cls-2" d="M393.42,135.73a4.13,4.13,0,1,1-4.13-4.13A4.13,4.13,0,0,1,393.42,135.73Z"/><path class="cls-2" d="M440.35,215.23a4.13,4.13,0,1,1-4.13-4.13A4.13,4.13,0,0,1,440.35,215.23Z"/><path class="cls-2" d="M347.56,215.23a4.13,4.13,0,1,1-4.13-4.13A4.13,4.13,0,0,1,347.56,215.23Z"/><path class="cls-2" d="M416.89,201.25a4.13,4.13,0,1,1-4.13-4.13A4.13,4.13,0,0,1,416.89,201.25Z"/><path class="cls-2" d="M370,174.86a4.13,4.13,0,1,1-4.13-4.13A4.13,4.13,0,0,1,370,174.86Z"/><path class="cls-2" d="M370,201.25a4.13,4.13,0,1,1-4.13-4.13A4.13,4.13,0,0,1,370,201.25Z"/><polygon class="cls-1" points="133.1 377.73 109.64 391.28 86.17 377.73 86.17 350.63 109.64 337.08 133.1 350.63 133.1 377.73"/><line class="cls-1" x1="133.11" y1="350.63" x2="156.57" y2="337.08"/><line class="cls-1" x1="156.57" y1="391.28" x2="133.11" y2="377.73"/><line class="cls-1" x1="87.25" y1="377.73" x2="63.78" y2="391.28"/><line class="cls-1" x1="109.64" y1="311.78" x2="109.64" y2="335.32"/><path class="cls-2" d="M113.77,337.08a4.13,4.13,0,1,1-4.13-4.13A4.13,4.13,0,0,1,113.77,337.08Z"/><path class="cls-2" d="M113.77,391.28a4.13,4.13,0,1,1-4.13-4.13A4.13,4.13,0,0,1,113.77,391.28Z"/><path class="cls-2" d="M137.24,350.91a4.13,4.13,0,1,1-4.13-4.13A4.12,4.12,0,0,1,137.24,350.91Z"/><path class="cls-2" d="M160.7,337.08a4.13,4.13,0,1,1-4.13-4.13A4.13,4.13,0,0,1,160.7,337.08Z"/><path class="cls-2" d="M113.77,311.78a4.13,4.13,0,1,1-4.13-4.13A4.13,4.13,0,0,1,113.77,311.78Z"/><path class="cls-2" d="M160.7,391.28a4.13,4.13,0,1,1-4.13-4.13A4.13,4.13,0,0,1,160.7,391.28Z"/><path class="cls-2" d="M67.91,391.28a4.13,4.13,0,1,1-4.13-4.13A4.13,4.13,0,0,1,67.91,391.28Z"/><path class="cls-2" d="M137.24,377.3a4.13,4.13,0,1,1-4.13-4.13A4.13,4.13,0,0,1,137.24,377.3Z"/><path class="cls-2" d="M90.3,350.91a4.13,4.13,0,1,1-4.13-4.13A4.12,4.12,0,0,1,90.3,350.91Z"/><path class="cls-2" d="M90.3,377.3a4.13,4.13,0,1,1-4.13-4.13A4.13,4.13,0,0,1,90.3,377.3Z"/><path class="cls-3" d="M350.74,171.19c1.28-5.33-1.48-10.39-6.52-11.57a10.46,10.46,0,0,0-7.64,1.31,28.68,28.68,0,0,0,.17-3c0-12.08-7.56-21.88-16.88-21.88-7.37,0-13.62,6.13-15.92,14.66-3-3-6.81-4.66-10.5-4-6.51,1.08-10.18,8.69-8.26,17a9.16,9.16,0,0,0-4.13-1,9.89,9.89,0,0,0-9.54,8.44Z"/><path class="cls-3" d="M140.23,280.22c1.28-5.34-1.48-10.4-6.52-11.58a10.51,10.51,0,0,0-7.64,1.31,28.51,28.51,0,0,0,.17-2.95c0-12.08-7.56-21.88-16.88-21.88-7.37,0-13.62,6.13-15.92,14.66-3-3-6.81-4.66-10.5-4-6.51,1.08-10.18,8.69-8.26,17a9.16,9.16,0,0,0-4.13-1A9.9,9.9,0,0,0,61,280.22Z"/><path class="cls-3" d="M428.15,395.92c1.28-5.33-1.48-10.39-6.52-11.57a10.46,10.46,0,0,0-7.64,1.31,28.68,28.68,0,0,0,.17-3c0-12.08-7.56-21.88-16.88-21.88-7.37,0-13.62,6.13-15.92,14.66-3-3-6.81-4.66-10.5-4-6.51,1.08-10.18,8.69-8.26,17a9.16,9.16,0,0,0-4.13-1,9.89,9.89,0,0,0-9.54,8.44Z"/><path class="cls-3" d="M226.57,117.13c1.29-5.34-1.48-10.4-6.51-11.57a10.47,10.47,0,0,0-7.65,1.3,28.35,28.35,0,0,0,.17-3C212.58,91.83,205,82,195.7,82c-7.37,0-13.61,6.12-15.92,14.65-3-3-6.8-4.66-10.5-4-6.5,1.08-10.17,8.69-8.25,17a9.22,9.22,0,0,0-4.14-1,9.88,9.88,0,0,0-9.53,8.44Z"/><path class="cls-4" d="M441.39,418.53c0,4.87-3.45,8.82-7.71,8.82H66.32c-4.26,0-7.71-4-7.71-8.82h0c0-4.88,3.45-8.82,7.71-8.82H433.68c4.26,0,7.71,3.94,7.71,8.82Z"/><path class="cls-5" d="M420.83,310.17V297.05h-8.45a24.18,24.18,0,0,0-2.31-5.54l6-6-9.27-9.28-6,6a24.43,24.43,0,0,0-5.53-2.29v-8.47H382.13V280a24.43,24.43,0,0,0-5.53,2.29l-6-6-9.28,9.28,6,6a24.16,24.16,0,0,0-2.3,5.54h-8.45v13.12H365a24.05,24.05,0,0,0,2.3,5.56l-6,6,9.28,9.28,5.95-6a25,25,0,0,0,5.56,2.31v8.4h13.13v-8.4a25.26,25.26,0,0,0,5.57-2.31l5.95,6,9.27-9.28-5.95-6a24,24,0,0,0,2.29-5.56Zm-32.13,5.12a11.66,11.66,0,1,1,11.65-11.65A11.66,11.66,0,0,1,388.7,315.29Z"/><path class="cls-5" d="M363.52,117.66V104.54h-8.44A24.64,24.64,0,0,0,352.77,99l6-6-9.28-9.28-6,6A24.4,24.4,0,0,0,338,87.44V79H324.83v8.47a24.4,24.4,0,0,0-5.53,2.28l-6-6L304,93l6,6a24.18,24.18,0,0,0-2.31,5.54h-8.45v13.12h8.44a24.23,24.23,0,0,0,2.3,5.56l-6,5.95,9.27,9.28,5.95-5.95a24.34,24.34,0,0,0,5.57,2.31v8.41H338v-8.41a24.08,24.08,0,0,0,5.56-2.31l6,5.95,9.28-9.28-5.95-5.95a24.66,24.66,0,0,0,2.29-5.56Zm-32.13,5.12a11.66,11.66,0,1,1,11.66-11.66A11.66,11.66,0,0,1,331.39,122.78Z"/><path class="cls-5" d="M143.42,244.12V231H135a24.27,24.27,0,0,0-2.3-5.53l6-6-9.28-9.28-6,6a24.21,24.21,0,0,0-5.53-2.28v-8.48H104.73v8.48a24.21,24.21,0,0,0-5.53,2.28l-6-6-9.28,9.28,6,6a24.27,24.27,0,0,0-2.3,5.53H79.16v13.13h8.43a24.69,24.69,0,0,0,2.3,5.56l-6,5.95,9.28,9.28,6-6a24.15,24.15,0,0,0,5.57,2.31v8.41h13.12v-8.41a24.15,24.15,0,0,0,5.57-2.31l6,6,9.28-9.28-6-5.95a24.69,24.69,0,0,0,2.3-5.56Zm-32.13,5.12a11.66,11.66,0,1,1,11.65-11.66A11.66,11.66,0,0,1,111.29,249.24Z"/><rect class="cls-6" x="83.22" y="145.68" width="14.8" height="19.89"/><rect class="cls-6" x="105.29" y="135.72" width="14.8" height="29.86"/><rect class="cls-6" x="126.56" y="125.25" width="14.8" height="40.33"/><polygon class="cls-7" points="140.41 99.88 128.99 101.52 132.14 104.66 115.27 118.54 106.76 111 83.22 130.43 85.24 132.72 106.69 115.02 115.2 122.56 134.31 106.82 138.07 110.56 140.41 99.88"/><path class="cls-7" d="M88.51,131.53a4.3,4.3,0,1,1-4.29-4.3A4.3,4.3,0,0,1,88.51,131.53Z"/><path class="cls-7" d="M110.92,113.58a4.3,4.3,0,1,1-4.3-4.3A4.29,4.29,0,0,1,110.92,113.58Z"/><path class="cls-7" d="M119.72,119.91a4.3,4.3,0,1,1-4.3-4.3A4.3,4.3,0,0,1,119.72,119.91Z"/><rect class="cls-8" x="202.14" y="376.68" width="95.28" height="24.32" transform="translate(499.56 777.69) rotate(180)"/><rect class="cls-9" x="202.14" y="376.68" width="95.28" height="8.14" transform="translate(499.56 761.51) rotate(180)"/><path class="cls-9" d="M201.29,401h97c11.37,0,20.59,7.85,20.59,17.53H180.7C180.7,408.85,189.92,401,201.29,401Z"/><path class="cls-8" d="M116.18,185H383.82a4.87,4.87,0,0,1,4.87,4.87V371.81a4.87,4.87,0,0,1-4.87,4.87H116.18a4.87,4.87,0,0,1-4.87-4.87V189.86A4.88,4.88,0,0,1,116.18,185Z" transform="translate(500 561.67) rotate(180)"/><rect class="cls-5" x="114.18" y="187.4" width="271.63" height="158.87" rx="4.87" transform="translate(500 533.66) rotate(180)"/><path class="cls-10" d="M130.09,201.72H369.92a4.25,4.25,0,0,1,4.25,4.25V327.69a4.25,4.25,0,0,1-4.25,4.25H130.09a4.26,4.26,0,0,1-4.26-4.26V206A4.26,4.26,0,0,1,130.09,201.72Z" transform="translate(500 533.66) rotate(180)"/><path class="cls-9" d="M256.45,361a6.67,6.67,0,1,1-6.67-6.67A6.67,6.67,0,0,1,256.45,361Z"/><text class="cls-11" transform="translate(132.34 323.71)">0101001101100110101</text><text class="cls-11" transform="translate(132.34 228.38)">0101001101100110101</text><text class="cls-11" transform="translate(132.34 291.15)">1101010101001101100</text><text class="cls-11" transform="translate(132.34 259.82)">1010011001010101011</text><path class="cls-5" d="M324.65,211.35A74.65,74.65,0,1,1,250,136.7,74.65,74.65,0,0,1,324.65,211.35Z"/><path class="cls-12" d="M268,211.12c0,28.47-8.07,51.55-18,51.55s-18-23.08-18-51.55,8.07-51.55,18-51.55S268,182.65,268,211.12Z"/><path class="cls-12" d="M262.75,200.47c24.09,20.13,37.91,41.22,30.87,47.1s-32.28-5.66-56.37-25.79-37.92-41.22-30.87-47.11S238.66,180.34,262.75,200.47Z"/><path class="cls-12" d="M237.25,200.47c-24.09,20.13-37.92,41.22-30.87,47.1s32.28-5.66,56.37-25.79,37.92-41.22,30.87-47.11S261.34,180.34,237.25,200.47Z"/><path class="cls-7" d="M259,211.12a9,9,0,1,1-9-9A9,9,0,0,1,259,211.12Z"/><path class="cls-6" d="M279.18,176.27a3.83,3.83,0,1,1-3.83-3.83A3.83,3.83,0,0,1,279.18,176.27Z"/><path class="cls-6" d="M217,197.94a3.83,3.83,0,1,1-3.83-3.83A3.83,3.83,0,0,1,217,197.94Z"/><path class="cls-6" d="M262.28,256.66a3.83,3.83,0,1,1-3.83-3.83A3.84,3.84,0,0,1,262.28,256.66Z"/><rect class="cls-13" x="288.56" y="303.61" width="150.78" height="55.82" rx="1.05"/><rect class="cls-2" x="290.47" y="305.52" width="146.95" height="51.99" rx="0.98"/><path class="cls-13" d="M288.56,304.66v14.49H439.34V304.66a1.05,1.05,0,0,0-1.06-1.05H289.61A1,1,0,0,0,288.56,304.66Z"/><path class="cls-7" d="M419,311.43a1.86,1.86,0,1,1-1.86-1.87A1.86,1.86,0,0,1,419,311.43Z"/><path class="cls-7" d="M426.35,311.43a1.87,1.87,0,1,1-1.86-1.87A1.86,1.86,0,0,1,426.35,311.43Z"/><path class="cls-7" d="M433.7,311.43a1.87,1.87,0,1,1-1.87-1.87A1.87,1.87,0,0,1,433.7,311.43Z"/><rect class="cls-6" x="347.36" y="328.9" width="22.88" height="3.34"/><rect class="cls-10" x="375.83" y="328.9" width="25.8" height="3.34"/><rect class="cls-10" x="375.83" y="336.35" width="36.69" height="3.34"/><rect class="cls-14" x="407.23" y="328.9" width="13.2" height="3.34"/><rect class="cls-10" x="347.36" y="343.59" width="22.88" height="3.34"/><rect class="cls-6" x="375.83" y="343.59" width="21.62" height="3.34"/><rect class="cls-7" x="401.63" y="343.59" width="26.97" height="3.34"/><rect class="cls-14" x="347.36" y="336.35" width="22.88" height="3.34"/><polyline class="cls-15" points="329.1 345.75 336.95 337.9 329.1 330.06"/><polyline class="cls-15" points="306.19 345.75 298.35 337.9 306.19 330.06"/><line class="cls-15" x1="321.57" y1="330.06" x2="313.53" y2="346.53"/><rect class="cls-13" x="58.61" y="269.68" width="74" height="55.82" rx="1.05"/><rect class="cls-2" x="60.53" y="271.59" width="70.17" height="51.99" rx="0.98"/><path class="cls-13" d="M58.61,270.74v14.48h74V270.74a1.06,1.06,0,0,0-1.05-1.06H59.67A1.06,1.06,0,0,0,58.61,270.74Z"/><path class="cls-7" d="M112.28,277.5a1.87,1.87,0,1,1-1.87-1.86A1.87,1.87,0,0,1,112.28,277.5Z"/><path class="cls-7" d="M119.63,277.5a1.87,1.87,0,1,1-1.87-1.86A1.87,1.87,0,0,1,119.63,277.5Z"/><path class="cls-7" d="M127,277.5a1.86,1.86,0,1,1-1.86-1.86A1.86,1.86,0,0,1,127,277.5Z"/><rect class="cls-10" x="69.11" y="294.98" width="25.8" height="3.34"/><rect class="cls-10" x="69.11" y="302.42" width="36.69" height="3.34"/><rect class="cls-14" x="100.5" y="294.98" width="13.2" height="3.34"/><rect class="cls-6" x="69.11" y="309.66" width="21.62" height="3.34"/><rect class="cls-7" x="94.91" y="309.66" width="26.97" height="3.34"/><rect class="cls-13" x="190.97" y="72.65" width="54.18" height="54.18" rx="1.02"/><rect class="cls-2" x="193.15" y="74.83" width="49.83" height="49.83" rx="0.94"/><path class="cls-13" d="M191,73.68V87.74h54.18V73.68a1,1,0,0,0-1-1H192A1,1,0,0,0,191,73.68Z"/><path class="cls-7" d="M225.42,80.25a1.81,1.81,0,1,1-1.81-1.81A1.81,1.81,0,0,1,225.42,80.25Z"/><path class="cls-7" d="M232.55,80.25a1.81,1.81,0,1,1-1.81-1.81A1.81,1.81,0,0,1,232.55,80.25Z"/><path class="cls-7" d="M239.68,80.25a1.81,1.81,0,1,1-1.81-1.81A1.81,1.81,0,0,1,239.68,80.25Z"/><polyline class="cls-16" points="227.43 112.58 233.66 106.35 227.43 100.11"/><polyline class="cls-16" points="209.24 112.58 203.01 106.35 209.24 100.11"/><line class="cls-16" x1="221.45" y1="100.11" x2="215.06" y2="113.2"/></svg>