<svg id="Layer_1" data-name="Layer 1" xmlns="http://www.w3.org/2000/svg" xmlns:xlink="http://www.w3.org/1999/xlink" viewBox="0 0 1874.01 1381.75"><defs><style>.cls-1,.cls-17,.cls-4,.cls-5{fill:none;}.cls-2{fill:#ee6f57;}.cls-3{fill:#e5ecff;}.cls-4,.cls-5{stroke:#fbc343;}.cls-17,.cls-21,.cls-25,.cls-4,.cls-5{stroke-miterlimit:10;}.cls-4{stroke-width:3.82px;}.cls-21,.cls-5{stroke-width:3.75px;}.cls-6{clip-path:url(#clip-path);}.cls-7{fill:#ffeec7;}.cls-11,.cls-21,.cls-25,.cls-8{fill:#fff;}.cls-9{fill:#e28b6d;}.cls-10{fill:#102048;}.cls-11,.cls-27{opacity:0.8;}.cls-12,.cls-15{fill:#1f3c88;}.cls-13{fill:#6f3428;}.cls-14{fill:#708cd5;}.cls-15,.cls-22{opacity:0.3;}.cls-16{fill:#f9b384;}.cls-17{stroke:#102048;}.cls-17,.cls-25{stroke-width:5px;}.cls-18,.cls-19,.cls-22{fill:#3c1c16;}.cls-19{opacity:0.15;}.cls-20{fill:#fc8879;opacity:0.5;}.cls-21{stroke:#1f3c88;}.cls-23{fill:#8cbfbe;}.cls-24{fill:#c6eae9;}.cls-25{stroke:#708cd5;}.cls-26{fill:#fbc343;}</style><clipPath id="clip-path"><path class="cls-1" d="M1534.65,1008.31c-42.08,121.75-92.33,242-267.1,288.4l-755.43-8c-170.22-80.4-263.25-239.15-278.72-410.42a583.57,583.57,0,0,1,10.1-171.55q4.65-22.5,11.1-44.73c39-134.55,121.62-261.4,244.5-333,78.95-46,180.15-30.8,264-7.2,75.6,21.28,149.45,51.08,227.5,60.05,62.17,7.13,125.42.8,187.8,3.25a458.4,458.4,0,0,1,66.5,7c94.22,17.7,177.75,75.48,235.07,152.73a419.72,419.72,0,0,1,49.3,85.7C1579.75,749.08,1576.72,886.56,1534.65,1008.31Z"/></clipPath></defs><path class="cls-2" d="M1742.17,1150.64l-.49,0,1.41-24.43H1618.8l6,103.65a36.74,36.74,0,0,0,36.67,34.61h39a36.72,36.72,0,0,0,36.66-34.61l1.39-23.92c1.21.12,2.43.19,3.68.19,18.14,0,32.91-12.45,32.91-27.75S1760.31,1150.64,1742.17,1150.64Zm0,44a27.21,27.21,0,0,1-3-.18l1.87-32.29c.38,0,.76,0,1.15,0,11.8,0,21.41,7.29,21.41,16.26S1754,1194.65,1742.17,1194.65Z"/><path class="cls-3" d="M1693.53,1116.83c-12.19-1.58-23.68-8.65-31.52-18.73a49.87,49.87,0,0,1-8.76-17.22c-.5-1.57-.79-3.18-1.14-4.78s-.53-3.22-.62-4.85a52.92,52.92,0,0,1,0-9.75,54,54,0,0,1,5.3-18.64,49.55,49.55,0,0,1,5.12-8.3,51.09,51.09,0,0,1,6.46-7c2.19-2,4.3-3.8,6.1-5.57a30.44,30.44,0,0,0,2.5-2.62,17.83,17.83,0,0,0,1.86-2.63,12.73,12.73,0,0,0,1.74-6,7.73,7.73,0,0,0-1.74-5.48l3.13-4.56a11.82,11.82,0,0,1,4.28,3.77,15.48,15.48,0,0,1,2.26,5.16,20.43,20.43,0,0,1-.49,10.8c-2.48,7.06-7.19,11.67-10.7,15.8a48.33,48.33,0,0,0-4.55,6c-.69,1-1.25,2.11-1.87,3.17s-1.13,2.18-1.58,3.32a48.35,48.35,0,0,0-3.76,14.2,45,45,0,0,0,6.31,28.27A53.29,53.29,0,0,0,1695,1111.5Z"/><path class="cls-3" d="M1697.26,1087.75a60,60,0,0,0,12.13-14.46,48.13,48.13,0,0,0,6.19-16.49,50.87,50.87,0,0,0-.28-17.56,65.24,65.24,0,0,0-6.25-17.8l4-3.79c6.46,4.12,11.33,10.7,14.17,18a43.39,43.39,0,0,1,2.23,23.6,44.5,44.5,0,0,1-10.36,21.28,38.51,38.51,0,0,1-19.39,12.14Z"/><path class="cls-4" d="M716.13,1289.16C557.41,1258.43,445.3,1166,393.26,1022.69c-82.78-227.88,5.92-563.81,243.21-637.61,94-29.23,209.39,23.11,305.93,22.4,135.61-1,257.55-84.22,392.26-73.61,175.38,13.81,303.58,175.38,336.46,339.31a484.17,484.17,0,0,1,3.56,171.14c-9.82,61.55-29.82,121.85-60.17,175.18-26.16,46-86.63,106.79-138.06,119Z"/><path class="cls-5" d="M1141,1263.72C1297.85,1225,1417.71,1108,1459,974.17c65.74-212.89-48.71-512.43-292.31-563.45-49.48-10.37-101.63-7.75-151.83-2-82,9.48-166.12,21.39-248.76,18.76-80.37-2.57-158.3-26.19-239.3-24.37-267.68,6-428,261.66-366.56,495.75,14.52,55.32,39.15,108.81,73.64,155.26,29.72,40,95,91.25,147.5,98.9Z"/><g class="cls-6"><path class="cls-7" d="M1534.65,1008.31c-42.08,121.75-92.33,242-267.1,288.4l-755.43-8c-170.22-80.4-263.25-239.15-278.72-410.42a583.57,583.57,0,0,1,10.1-171.55q4.65-22.5,11.1-44.73c39-134.55,121.62-261.4,244.5-333,78.95-46,180.15-30.8,264-7.2,75.6,21.28,149.45,51.08,227.5,60.05,62.17,7.13,125.42.8,187.8,3.25a458.4,458.4,0,0,1,66.5,7c94.22,17.7,177.75,75.48,235.07,152.73a419.72,419.72,0,0,1,49.3,85.7C1579.75,749.08,1576.72,886.56,1534.65,1008.31Z"/><path class="cls-8" d="M97.64,1192.67c-3.44-41.83,20-86.92,61.12-117.7,37.47-28,83.7-42.31,128.08-53.57,246.57-62.59,507-55.12,758.9-47.9,225.1,6.45,457.87,13.12,680.7-30,31.72-6.15,65.07-13.62,93.44-31.23,30.48-18.91,49.78-48.53,50.37-77.31,1.09-54-57.36-90.94-92.3-108.18-132.7-65.48-296-90.11-513.81-77.53a2461.63,2461.63,0,0,0-488.76,78.46c-36,9.58-72.66,20.16-108.06,30.39-126.76,36.65-257.83,74.54-391.51,74.54h-2c-36.29-.11-82.88-7.46-98.75-41.88-11.21-24.3-1.79-52,8.09-70.92,33-63.32,95.49-100.22,142.08-120,52.34-22.25,109.21-34.34,164.21-46,6.53-1.39,13.06-2.77,19.57-4.18a3704.78,3704.78,0,0,0,365-98.4c56.63-18.43,85.7-42.39,88.85-73.25,2.8-27.37-17.29-51.34-38.44-63-25.35-13.92-55.29-15.72-78.55-15.74h-.33A432.25,432.25,0,0,0,644.1,349c-22.89,12.11-45,26.51-66.33,40.44-28.28,18.45-57.52,37.52-89,51.54-60.94,27.12-133.1,37.11-214.46,29.69C211.46,465,163.58,449.56,127.9,423.56,106.37,407.88,88.4,387.64,71,368.07c-21.12-23.78-43-48.37-71-64.35l1.86-3.26c28.59,16.28,50.64,41.11,72,65.12,17.25,19.42,35.08,39.5,56.29,54.95,35.11,25.59,82.38,40.78,144.5,46.45,80.71,7.36,152.24-2.53,212.6-29.39,31.25-13.9,60.36-32.88,88.51-51.25,21.43-14,43.59-28.43,66.63-40.62a436.15,436.15,0,0,1,203.2-50.25h.33c23.71,0,54.26,1.88,80.35,16.2,22.24,12.21,43.35,37.55,40.38,66.63-3.33,32.5-33.23,57.5-91.43,76.44a3712.29,3712.29,0,0,1-365.39,98.5l-19.58,4.18c-54.83,11.66-111.52,23.71-163.52,45.82-46,19.56-107.72,56-140.22,118.3-9.49,18.2-18.59,44.7-8,67.62,15.05,32.63,60.17,39.6,95.36,39.7h2c133.16,0,264-37.81,390.47-74.39,35.42-10.24,72.05-20.83,108.14-30.41a2464.69,2464.69,0,0,1,489.51-78.58c218.52-12.63,382.37,12.13,515.68,77.91C1815.35,741,1875.13,779,1874,835c-.61,30-20.59,60.85-52.14,80.42-28.92,17.94-62.64,25.51-94.71,31.72-223.24,43.23-456.21,36.56-681.51,30.09C794,970,533.83,962.57,287.76,1025,243.76,1036.2,198,1050.34,161,1078c-40.11,30-63,73.84-59.62,114.39Z"/></g><path class="cls-9" d="M1187.69,1194.13c51,13.08,121.08,24.8,98.74,68.41l-127.06-.13Z"/><rect class="cls-10" x="461.24" y="893.71" width="274.89" height="403.01" rx="75.99"/><path class="cls-11" d="M522.45,930.87c-4.61,1.21-7.73,5.42-9.81,9.72a63.54,63.54,0,0,0-4.52,14,189,189,0,0,0-3.62,29.51,536.44,536.44,0,0,0,.62,59.74c1.13,19.92,3,39.8,5.36,59.61q1.74,14.88,4,29.67c1.46,9.87,3.11,19.72,5.12,29.5l-1.43.32c-2.39-9.73-4.44-19.54-6.28-29.39s-3.3-19.76-4.69-29.68q-4-29.77-5.82-59.82c-1-20-1.52-40.1-.07-60.15A184.69,184.69,0,0,1,505.66,954a65.1,65.1,0,0,1,5.2-14.31,26.9,26.9,0,0,1,4.48-6.32,13.88,13.88,0,0,1,6.79-3.93Z"/><path class="cls-12" d="M569.48,957.43s7.77,157.73,56.74,331.25H760Z"/><path class="cls-13" d="M630.85,876.9c-33.62-18.29-42.84-63.6-18.29-93,2.37-2.83,5-5.7,7.89-8.59,37.51-37.37,14.14-74.75,8.9-160.71S719.78,505.24,720,505.2c4.51-1.11,13.24-14,16.93-17.18,43.18-37.46,105.13-34.69,152.46-6.19,22.52,13.56,45.18,34.45,57.37,58.41,19.33,38,22.83,88.06,55.39,117.65,46.4,42.17,97.88,78,95.8,146-.74,24.16-6.79,49.7-21.51,69.07-12.84,16.88-32.39,28.2-50,39.13-28.68,17.75-59,33.44-91,44-31,10.21-62.35,19.39-93.79,28.14q-4.46,1.24-8.92,2.46Z"/><path class="cls-14" d="M849.63,839.76C962,801.18,1023,927,1106.94,1172.34l80.75,21.79-9.38,87.39-29.47,6.14-240.55,1Z"/><rect class="cls-3" x="98.36" y="1259.72" width="1708.64" height="58.89"/><polygon class="cls-14" points="691.33 821.48 942.61 884.37 1048.19 1200.72 695.5 1211.46 672.17 977.56 691.33 821.48"/><path class="cls-15" d="M700.19,957.43c61.74,62.15,48.08,153.23,100.83,162.26,34.91,6,134.14,20.17,181.48,39.89,9.57,4,36,23.65,31.91,41.08-2.64,11.24-37.86,2.24-37.86,2.24l-263.68-26.46L657,1047.24Z"/><path class="cls-10" d="M917.09,1185.25c1.79-2.83,39.59-10.32,43.87-9.74,14.06,1.92,21.74,12.94,25.13,21.36l-55.94,29.51Z"/><path class="cls-10" d="M958.94,957.15l6.49,14.79c2.13,4.94,4.13,9.94,6.2,14.91,4,10,7.83,20.07,11.44,30.22,7.31,20.27,13.77,40.82,19.84,61.49s11.33,41.57,16.07,62.58c2.28,10.53,4.49,21.07,6.45,31.66s3.57,21.25,5,31.93l-1.39.2q-2.64-15.9-6-31.64c-2.16-10.52-4.57-21-7.05-31.44q-7.45-31.35-16.42-62.31c-5.87-20.66-12.4-41.13-19.29-61.47-3.41-10.19-7.1-20.27-10.84-30.34-1.91-5-3.74-10.07-5.71-15.07l-6-14.95Z"/><path class="cls-16" d="M1159.8,1238.63s-10.58,12.5-44,.33c-15.73,1.82-45,.42-100.6-8.65,0,0,20.2,14.12,65.87,16.55,0,0-1.95,13.45-26,12.85-29-.73-32.33-2.48-58.73-1.38-5.4.23-17.15,0-29.87-.42-22.2-.73-47.43-1.9-47.43-1.9l-22-39.33,43.9-21c13.48-5.28,20.2-7.1,26.75-8,28.35-4,46.25-7.22,66.58-3.72C1056.87,1187.78,1125.85,1210.66,1159.8,1238.63Z"/><path class="cls-9" d="M967.72,1257.23l-1.22.68c-22.2-.73-47.43-1.9-47.43-1.9l-22-39.33,43.9-21c13.48-5.28,20.2-7.1,26.75-8C951.59,1194.21,938.37,1211.46,967.72,1257.23Z"/><path class="cls-14" d="M794.91,839.33C737.79,827.63,598.6,817.89,559.7,890c-32,59.33,48.25,258,83,327.87,14.31,28.75,55.86,43,72,43.09l229.48-1.32C928.79,1256,909,1173.17,961,1175.51L770.9,1149a26,26,0,0,1-18.14-11.4c-2.75-4.16-6-9.41-7.57-15.38l-54-197.6Z"/><polygon class="cls-8" points="1302.68 1260.91 1078.78 1260.77 1078.78 1239.65 1303.98 1239.65 1302.68 1260.91"/><polygon class="cls-10" points="1491.86 1260.91 1221.76 1260.83 1320.28 972.75 1590.37 972.84 1491.86 1260.91"/><path class="cls-8" d="M1427.82,1132.21c-8.27,13.22-23.75,18.65-35.55,12.85a18.8,18.8,0,0,1-2-1.13c-12-7.5-14.65-25-5.9-38.92s25.58-19.25,37.6-11.73a22.78,22.78,0,0,1,8.25,9.13C1434.47,1111,1433.92,1122.46,1427.82,1132.21Z"/><path class="cls-14" d="M1427.82,1132.21c-8.27,13.22-28.61,22.83-42.87,7.11,30.92,2.81,41.34-17.45,40.75-43C1436.29,1108,1433.92,1122.46,1427.82,1132.21Z"/><path class="cls-13" d="M1034.42,1183.19c11.48,1.69,22.59,4.9,33.6,8.31s21.83,7.49,32.47,12a298.2,298.2,0,0,1,31.24,15c10.06,5.66,19.87,11.95,28.53,19.66l-.93,1.13a171.19,171.19,0,0,0-14.22-9.54c-4.86-3-9.86-5.75-14.94-8.37-10.13-5.28-20.51-10.12-31.12-14.42-10.47-4.61-21.24-8.54-32-12.37q-8.1-2.85-16.31-5.37c-5.46-1.71-11-3.27-16.54-4.51Z"/><path class="cls-13" d="M1030,1236.49,1042,1240c4,1.08,8.08,2,12.14,2.83s8.17,1.48,12.28,2.06,8.26,1,12.41,1.37l1.37.14.12,1.19a11.38,11.38,0,0,1-.45,4.46,8.23,8.23,0,0,1-2.43,3.81,9.06,9.06,0,0,1-3.93,1.91c-.68.17-1.38.2-2.06.3l-2-.06v-1.46l1.81-.27c.57-.18,1.17-.27,1.7-.48a6.93,6.93,0,0,0,2.73-1.78,5.82,5.82,0,0,0,1.42-2.74,8.45,8.45,0,0,0,.08-3.16l1.49,1.33a122.56,122.56,0,0,1-25.28-3.09,108.66,108.66,0,0,1-12.24-3.61,125.07,125.07,0,0,1-11.73-4.83Z"/><path class="cls-13" d="M1019.73,1207.38c9.72,1.24,19.48,2.2,29.25,3.19s19.55,2,29.31,3.57,19.39,3.32,29,5.08,19.33,3.54,29,5.49l2.28.46-1,2.11a28.22,28.22,0,0,1-2.48,5.2,14.88,14.88,0,0,1-2.08,2.41,25.26,25.26,0,0,1-2.53,1.79c-3.54,2.07-7.33,2.78-11,3.5a114.63,114.63,0,0,1-22.25.92c-3.69-.14-7.37-.29-11-.62s-7.34-.54-11-1c-7.31-.77-14.58-1.8-21.85-2.86l.19-1.45c7.3.6,14.58,1.41,21.88,1.84,3.64.28,7.29.51,10.94.67s7.29.29,10.93.34a129.23,129.23,0,0,0,21.61-1.27c3.44-.69,7-1.43,9.8-3.14.71-.41,1.29-.94,1.94-1.39a11.31,11.31,0,0,0,1.48-1.76,26.37,26.37,0,0,0,2.17-4.74l1.31,2.58c-19.29-3.63-38.55-7.52-57.85-10.86-9.6-1.75-19.35-2.93-29.08-4.23s-19.48-2.59-29.17-4.38Z"/><line class="cls-17" x1="98.36" y1="1259.72" x2="1807.01" y2="1259.72"/><path class="cls-10" d="M766.8,914.2a81.68,81.68,0,0,0,27.2,12,74.54,74.54,0,0,0,29.44,1.13,61.24,61.24,0,0,0,27-11.2,62,62,0,0,0,18.71-22.75l1.35.58c-1,2.34-2.11,4.67-3.21,7-1.26,2.24-2.73,4.37-4.11,6.56s-3.33,4-5,5.95-3.84,3.5-5.76,5.26A61.91,61.91,0,0,1,824,931a74.42,74.42,0,0,1-58.12-15.66Z"/><path class="cls-10" d="M700.86,957.24l12.54,42.59,12.33,42.64,12.2,42.68,6.07,21.36,3,10.67a80.24,80.24,0,0,0,3.3,10.3c2.75,6.45,8.32,11.23,14.61,14.51a85.71,85.71,0,0,0,20.56,6.86c7.16,1.53,14.41,2.58,21.77,3.52l22,3,44,6.09,43.94,6.32-.19,1.39-44.08-5.23-44.06-5.46-22-2.8c-7.32-.91-14.74-1.94-22.05-3.47a88.55,88.55,0,0,1-21.46-7.07c-6.74-3.45-13.16-8.83-16.23-16.17a18.18,18.18,0,0,1-1.07-2.73c-.3-.92-.65-1.87-.87-2.74l-1.5-5.35-3-10.69-6-21.37-11.88-42.78-11.75-42.81-11.55-42.86Z"/><path class="cls-16" d="M843.59,750l11.25,96.88c3.35,28.83-27,53-57.84,45-17.62-4.57-36-16.76-55-35.08A22.3,22.3,0,0,1,735.23,843l-12-116.76Z"/><path class="cls-18" d="M845.12,763.16l6.13,52.75c-24.89,3.9-60-10.09-95.59-57.35Z"/><path class="cls-16" d="M906.52,680.24c-1.44,17.56-4.22,35.92-9.15,52.41-8.32,27.71-22.85,50.06-47.74,54.2C776.35,799,723.25,726.18,723.25,726.18l-8.52-99.12L759,550.55l99-2.87,48.3,57.12A474.79,474.79,0,0,1,906.52,680.24Z"/><path class="cls-13" d="M712.35,664.72c39.34-2.93,48.4-36.18,51.08-79.27,0,0,106.55-26.39,144.38,49.35l28.68,3.11L849.63,522.6l-135,16.1-26.41,87.64Z"/><path class="cls-16" d="M733.16,651.8a21.46,21.46,0,0,0-18.38-6.86c-26.13,3.16-30.67,37.77-24.69,52.49,8.94,22,33.15,28.75,33.15,28.75l20.8-22C745.71,681.27,743.1,662.76,733.16,651.8Z"/><path class="cls-19" d="M733.59,752.76C748,793.6,792.13,908.91,720,906c-34.78-1.4-65.34-68.86-114.92-56.12a129.9,129.9,0,0,1,18.54-7.16Z"/><path class="cls-13" d="M723.24,726.18c13.92,26.44,52.86,157.24-13.47,149.68-32-3.64-39.82-42.15-86.17-33.13Z"/><path class="cls-18" d="M725.52,675.77a14.46,14.46,0,0,0-2.39-8.27,14.74,14.74,0,0,0-6.14-5.4,10,10,0,0,0-7.57-.41c-2.52.9-4.78,2.88-7,5.18l-1.6-1a15.17,15.17,0,0,1,6.88-8.07,9,9,0,0,1,2.72-1,9.63,9.63,0,0,1,2.92-.36l1.47,0,1.43.3a10.26,10.26,0,0,1,2.73.94,16.2,16.2,0,0,1,7.75,7.79,13.6,13.6,0,0,1,.62,10.6Z"/><path class="cls-18" d="M865.72,661c.23,6.73,4.16,12.07,8.76,11.9s8.15-5.75,7.92-12.49-4.16-12.06-8.77-11.9S865.48,654.26,865.72,661Z"/><path class="cls-18" d="M793.06,663.54c.24,6.74,4.17,12.07,8.77,11.91S810,669.7,809.74,663s-4.16-12.07-8.76-11.91S792.83,656.81,793.06,663.54Z"/><path class="cls-18" d="M864.8,729.58a35.72,35.72,0,0,1-12,10.2A23.48,23.48,0,0,1,836.37,741a40.67,40.67,0,0,1-13.94-7.61,65.16,65.16,0,0,1-10.84-10.93l1.52-1.56c4.15,2.86,8,5.93,12.16,8.51a49.66,49.66,0,0,0,12.64,6.27,21.22,21.22,0,0,0,13.07-.22c4.26-1.59,8.27-4.42,12.3-7.38Z"/><path class="cls-18" d="M890.31,640.19a61,61,0,0,0-9.34-5.74,17.79,17.79,0,0,0-9.12-1.66,31.83,31.83,0,0,0-9.45,2.78c-3.26,1.42-6.46,3.33-10.13,5l-1-1a29.61,29.61,0,0,1,8-9.19,23.24,23.24,0,0,1,12.06-4.76,18.43,18.43,0,0,1,12.77,3.9,23,23,0,0,1,7.39,9.86Z"/><path class="cls-18" d="M817.52,642.74A38.62,38.62,0,0,0,807,637.22a26.41,26.41,0,0,0-10.78-1.09A40.1,40.1,0,0,0,785.42,639c-3.62,1.5-7.18,3.44-11.13,5.33l-1-1a31,31,0,0,1,9.14-9.76,27.66,27.66,0,0,1,13.13-4.78,23.41,23.41,0,0,1,13.93,3,21.48,21.48,0,0,1,9.17,10.06Z"/><path class="cls-20" d="M747.16,710.14a26.65,26.65,0,1,0,25.7-27.56A26.64,26.64,0,0,0,747.16,710.14Z"/><path class="cls-20" d="M906.52,680.24c-1.44,17.56-4.22,35.92-9.15,52.41a26.66,26.66,0,0,1,5.51-52.51A29.4,29.4,0,0,1,906.52,680.24Z"/><path class="cls-20" d="M835.65,655.73a1.13,1.13,0,0,1,2.22-.2c6,19.43,25.31,33.64,22.22,39.34-2.18,4-10.37,8.57-16.11,11.37a5.13,5.13,0,0,1-7.3-3.63C833.91,688.18,834.07,672.3,835.65,655.73Z"/><path class="cls-18" d="M839.79,653.76a49.71,49.71,0,0,0,7.08,15.72c3.17,4.87,6.88,9.38,10.64,14.14.94,1.19,1.86,2.42,2.76,3.74a21.69,21.69,0,0,1,2.48,4.57,6.65,6.65,0,0,1,.35,3.61,7.3,7.3,0,0,1-1.7,3.1,20,20,0,0,1-3.89,3.32,63.43,63.43,0,0,1-16.86,7.57l-.83-2c2.56-1.52,5.18-3,7.65-4.57A71.11,71.11,0,0,0,854.6,698a20.05,20.05,0,0,0,2.79-2.7,4.21,4.21,0,0,0,.48-.78,3.3,3.3,0,0,0-.23-.79c-.78-2-2.79-4.44-4.51-6.76a107.33,107.33,0,0,1-10.35-15.11A39.28,39.28,0,0,1,837.63,654Z"/><path class="cls-18" d="M700,733.44a25,25,0,0,0-2,11.89,40.18,40.18,0,0,0,2.86,11.91c3.22,7.59,7.51,15,11.28,22.68s7.22,15.76,8.77,24.48a55.17,55.17,0,0,1,.63,13.29,56.3,56.3,0,0,1-1.09,6.66,31.66,31.66,0,0,1-2.47,6.42A25.79,25.79,0,0,1,708.71,841a21.48,21.48,0,0,1-13.64,3.2c-4.77-.6-8.77-2.33-12.77-3.92s-7.84-3.39-11.7-5.12c-7.72-3.4-15.52-6.7-23.61-8.21a27.66,27.66,0,0,0-12,0,16.4,16.4,0,0,0-5.26,2.57,18.24,18.24,0,0,0-4,4.41l-1.61-1a20.42,20.42,0,0,1,4.16-5.27,19,19,0,0,1,6-3.32,30.38,30.38,0,0,1,13.28-.75c8.71,1.33,16.8,4.49,24.71,7.66L684,836.22c3.88,1.53,7.84,3.09,11.55,3.49a16.91,16.91,0,0,0,10.68-2.64,22.31,22.31,0,0,0,7.55-8.49,26.79,26.79,0,0,0,2.14-5.43,52,52,0,0,0,1-5.89,50.2,50.2,0,0,0-.47-12.11c-1.34-8.07-4.48-15.84-8-23.49s-7.56-15.11-10.68-23.3a42.65,42.65,0,0,1-2.43-12.92,25.81,25.81,0,0,1,2.93-12.84Z"/><path class="cls-18" d="M701.3,510.73a142,142,0,0,1,22.27-7.54,222.41,222.41,0,0,1,23-4.73A194.79,194.79,0,0,1,770,496.24c3.92-.1,7.86-.08,11.79.11a84.53,84.53,0,0,1,11.74,1.51l-.26,1.86c-3.85-.12-7.67-.25-11.52,0s-7.68.34-11.51.72q-11.49,1-23,2.75c-7.63,1.11-15.22,2.5-22.8,4-3.79.73-7.56,1.57-11.31,2.47s-7.48,1.88-11.21,2.89Z"/><path class="cls-18" d="M763,584.62a42.78,42.78,0,0,1,10-3.54c3.4-.79,6.83-1.48,10.28-1.94a154,154,0,0,1,20.81-1.31,158,158,0,0,1,41.33,5.59c13.44,3.77,26.45,9.68,37.63,18.25a80.76,80.76,0,0,1,25.63,32.73l-1.69.81A87.91,87.91,0,0,0,880.52,605a108.73,108.73,0,0,0-17.4-10.15,132.76,132.76,0,0,0-19-6.88A167.47,167.47,0,0,0,804,581.87a159.19,159.19,0,0,0-20.37.49c-6.72.6-13.62,1.47-19.75,3.93Z"/><path class="cls-18" d="M292.15,957.67l25.7,8.34a5.65,5.65,0,0,1,.68,10.48L290.46,989.8l.05.38L329.78,998a2.72,2.72,0,1,1-1.07,5.34l-39.26-7.82a5.65,5.65,0,0,1-1.32-10.65l28.07-13.31,0-.37-25.7-8.33a2.73,2.73,0,0,1,1.68-5.19Z"/><path class="cls-18" d="M225.78,922.26l22.83,7.4a5,5,0,0,1,.6,9.31l-24.93,11.82,0,.34,34.88,7a2.42,2.42,0,1,1-.95,4.74l-34.87-7a5,5,0,0,1-1.17-9.45l24.93-11.82,0-.34-22.83-7.4a2.42,2.42,0,1,1,1.49-4.6Z"/><path class="cls-18" d="M363.56,1011.93l18.1,5.86a4,4,0,0,1,.48,7.38l-19.77,9.37,0,.27,27.65,5.51a1.92,1.92,0,1,1-.75,3.76l-27.65-5.51a4,4,0,0,1-.92-7.49l19.76-9.37,0-.27-18.09-5.87a1.91,1.91,0,1,1,1.18-3.64Z"/><rect class="cls-21" x="1390.68" y="749.81" width="128.11" height="120.11" rx="23.89"/><polygon class="cls-12" points="1454.73 893.66 1431.45 869.92 1478.02 869.92 1454.73 893.66"/><path class="cls-12" d="M1452.69,843.9a4.27,4.27,0,0,1-3.24-1.5L1426.17,815a4.25,4.25,0,1,1,6.48-5.51l19.3,22.7L1482,778a4.25,4.25,0,1,1,7.44,4.13l-33,59.55a4.25,4.25,0,0,1-3.3,2.18Z"/><path class="cls-2" d="M266.59,1132.59c-35.68,8.45-75.24,20.16-92.16,56.13-16,34,.65,67,32.76,83,21.73,10.87,104.52,29.19,70.14,69.37-22.21,26-60.78,17.93-86.15,2.6-13.22-8-25.26,12.7-12.08,20.66,28.84,17.43,62.05,23.82,93.42,9.42,34.05-15.64,47.45-55.73,21.47-85.06-13.32-15-32.13-22.11-50.63-28.47-17.48-6-40.38-12.74-48.88-31.18-8-17.35,2.5-37.19,15.81-48.61,17.23-14.78,41.19-19.72,62.66-24.81,15-3.55,8.64-26.63-6.36-23.08Z"/><path class="cls-2" d="M594.47,1176.36c40.55,2.36,43.46-50.46,43.46-50.46s-27.74-14.08-53.74,3.39Z"/><path class="cls-18" d="M596.76,1160.36c16.15-.26,24.09-20.56,24.09-20.56s-11.9-7.28-26.89.17Z"/><path class="cls-2" d="M479.93,1127.47c-28.12-29.31,10.17-65.81,10.17-65.81s28.72,12,32.31,43.08Z"/><path class="cls-18" d="M489.93,1115.21c-9.81-11.88,0-30.22,0-30.22s12.65,4.14,16.53,19.63Z"/><path class="cls-2" d="M538,1257.16a10.09,10.09,0,0,1-7.82,5.9c-27.43,4.22-34.13-3.35-34.13-3.35s-21.82,12.15-73.12-2.3a11.86,11.86,0,0,1-6.8,5.25c-7.85,2.57-38.33-.08-58.18-2.15-12-1.28-47.15,1.55-47.15,1.55-32,0-68.4-8.55-82.47-40.68-17.83-40.65.92-89.37,31.15-118.47,32.25-31.1,75.27-33.9,114.4-13.53,94.9,49.45,102.07,33.33,126.42,12.83l16.43,124.62c5.37,1.88,10.1,4.45,13.5,8a41.94,41.94,0,0,1,5.4,6.85C539.85,1248.56,539.45,1253.71,538,1257.16Z"/><path class="cls-22" d="M472.67,1127.47c-38.05,22.36-39.3,93.2,34.16,100.11l8.42-32.12Z"/><path class="cls-2" d="M604.45,1180.13c-7.73,27.15-20.48,42.7-33.55,51.35a60.49,60.49,0,0,1-33.53,10.25,78.34,78.34,0,0,1-23.7-3.7c-29.1-9.15-52.87-34.65-52.87-68.15,0-42.3,30.72-74.72,69.4-74.72C574.47,1095.16,618.2,1131.71,604.45,1180.13Z"/><path class="cls-22" d="M570.9,1231.48a60.49,60.49,0,0,1-33.53,10.25c-.6,0-1.17,0-1.77,0a41.94,41.94,0,0,0-5.4-6.85c-3.4-3.58-8.13-6.15-13.5-8,11.87-2.42,18.75.75,18.75.75s21.87-10.87,35.4,3.85Z"/><path class="cls-2" d="M529.6,1243.6c-3.85,5.54-3.16,13.25,2.2,17.35a6.62,6.62,0,0,0,3.87,1.59h38.14c1.82,0,2.79-2,3.29-4.49,1.48-7.63-1.72-15.38-7.67-20.38C557.12,1227.32,540.73,1227.57,529.6,1243.6Z"/><path class="cls-18" d="M460.79,1223.1a171.79,171.79,0,0,1,23.13.67,151.9,151.9,0,0,1,22.91,3.81A83.66,83.66,0,0,1,518,1231.2a53.8,53.8,0,0,1,10.49,5.49,27.37,27.37,0,0,1,8.26,8.76,18.26,18.26,0,0,1,1.94,11.78l-1.39-.15a17.25,17.25,0,0,0-2.71-10.36,24.6,24.6,0,0,0-7.85-7.43c-6.25-3.92-13.46-6.4-20.77-8.26a184.27,184.27,0,0,0-22.37-4.25c-7.55-1-15.17-1.76-22.78-2.28Z"/><path class="cls-18" d="M333.48,1147.8a48.16,48.16,0,0,1,21.58,8.74,31.08,31.08,0,0,1,7.89,8.92,36.87,36.87,0,0,1,4.26,11.15,52.86,52.86,0,0,1,.9,11.83,81.45,81.45,0,0,1-1.46,11.67,117.72,117.72,0,0,1-7.07,22.24c-1.51,3.59-3.21,7.08-5.06,10.51l-.71,1.29-.37.65,0,0c.17.57-1.6-4.73-.83-2.48l.09,0,.16.07.33.13,2.64,1c1.77.68,3.56,1.29,5.36,1.89a139.26,139.26,0,0,0,22.1,5.24c7.47,1.07,15.31,1.9,22.81,3.79a60,60,0,0,1,11.09,3.78,18.44,18.44,0,0,1,5.06,3.3,6.13,6.13,0,0,1,1.73,2.77,4.43,4.43,0,0,1-.43,3.33l-1.24-.66c.76-1.51.06-3-1.27-4.18a17.15,17.15,0,0,0-4.67-2.74,58.35,58.35,0,0,0-10.83-3.15c-7.45-1.66-14.94-2.24-22.69-3.13a131.34,131.34,0,0,1-22.72-5.09c-1.85-.61-3.69-1.22-5.51-1.9l-2.73-1-.34-.14-.17-.06-.08,0c.75,2.24-1.08-3.06-.88-2.53l0,0,.34-.6.67-1.24c1.77-3.34,3.37-6.78,4.89-10.25a114.5,114.5,0,0,0,7-21.52,78,78,0,0,0,1.49-11.14,53.42,53.42,0,0,0-.61-11.1,31,31,0,0,0-10.69-18.76c-5.72-4.76-12.93-7.59-20.33-9.25Z"/><path class="cls-18" d="M550.68,1158.08c2.67,4.92,6.29,9.32,11.13,10.83a18.55,18.55,0,0,0,7.69.65c1.34-.12,2.68-.49,4.07-.69,1.34-.39,2.71-.79,4.14-1.11l.69,1.39c-1.25.83-2.57,1.57-3.91,2.32a34.32,34.32,0,0,1-4.38,1.52,18,18,0,0,1-9.58-.23,15.7,15.7,0,0,1-7.82-5.69,18.46,18.46,0,0,1-3.53-8.58Z"/><path class="cls-18" d="M507.17,1139.3c2.28,5.1,5.55,9.78,10.25,11.65a18.63,18.63,0,0,0,7.62,1.25c1.34,0,2.71-.28,4.11-.38,1.37-.28,2.76-.58,4.21-.78l.58,1.44c-1.31.73-2.68,1.37-4.07,2a34.78,34.78,0,0,1-4.49,1.17,17.78,17.78,0,0,1-9.53-1,15.68,15.68,0,0,1-7.36-6.28,18.51,18.51,0,0,1-2.85-8.83Z"/><polygon class="cls-23" points="1431.16 554.57 1473.41 554.57 1439.67 336.17 1397.42 336.17 1431.16 554.57"/><polygon class="cls-24" points="1473.44 554.57 1515.69 554.57 1481.95 336.17 1439.71 336.17 1473.44 554.57"/><rect class="cls-23" x="1531.57" y="454.24" width="155.91" height="100.3"/><rect class="cls-8" x="1576.56" y="486.82" width="65.93" height="17.56"/><rect class="cls-24" x="1324.06" y="270.16" width="73.36" height="284.38"/><rect class="cls-23" x="1284.55" y="554.53" width="439.08" height="31.58"/><circle class="cls-25" cx="958.29" cy="143.64" r="141.14" transform="translate(179.11 719.69) rotate(-45)"/><polygon class="cls-10" points="1014.12 172.95 953.8 144.28 1019.7 86.23 1023 89.98 962.79 143.01 1016.26 168.44 1014.12 172.95"/><rect class="cls-24" x="258.98" y="220.75" width="281.61" height="185.35" rx="30.86"/><rect class="cls-23" x="294.61" y="267.27" width="210.35" height="17.52"/><rect class="cls-11" x="294.61" y="304.67" width="210.35" height="17.52"/><rect class="cls-11" x="294.61" y="342.06" width="210.35" height="17.52"/><polygon class="cls-26" points="330.15 593.66 290.17 562.39 370.13 562.39 330.15 593.66"/><rect class="cls-26" x="130.17" y="377.07" width="281.61" height="185.35" rx="30.86"/><g class="cls-27"><rect class="cls-8" x="189.73" y="482.84" width="27.26" height="33.69"/><rect class="cls-8" x="233.51" y="445.33" width="27.26" height="71.21"/><rect class="cls-8" x="279.23" y="461.5" width="27.26" height="55.04"/><rect class="cls-8" x="324.94" y="422.95" width="27.26" height="93.58"/></g></svg>